# xmcd CD database file
#
# Track frame offsets:
#	150
#	12410
#	22405
#	33556
#	47050
#	58240
#	69583
#	82079
#	95423
#	110694
#	120926
#	134130
#	147946
#	156691
#	169548
#	181277
#	194288
#	207524
#	219986
#	231260
#	243747
#	254126
#	264661
#	276006
#
# Disc length: 3827 seconds
#
# Revision: 1
# Processed by: cddbd v1.5.2PL0 Copyright (c) Steve Scherf et al.
# Submitted via: CDex 1.40Beta9
#
DISCID=800ef118
DTITLE=Various Artist - The Complete Motown Singles Volume 4 [CD21)
DYEAR=2006
DGENRE=R&B/Soul
TTITLE0=Martha and The Vandellas - Wild One
TTITLE1=Martha and The Vandellas - Dancing Slow
TTITLE2=Carolyn Crawford - When Someone's Good To You
TTITLE3=Carolyn Crawford - My Heart
TTITLE4=The Contours - Can You Jerk Like Me
TTITLE5=The Contours - That Day When She Needed Me
TTITLE6=The Miracles - Come On Do The Jerk
TTITLE7=The Miracles - Baby Don't You Go
TTITLE8=Ray Oddis - Randy, The Newspaper Boy
TTITLE9=Ray Oddis - Happy Ghoul Tide
TTITLE10=Tony Martin - Talkin' To Your Picture
TTITLE11=Tony Martin - Our Rhapsody
TTITLE12=Dorsey Burnette - Ever Since The World Began
TTITLE13=Dorsey Burnette - Long Long Time Ago
TTITLE14=Marvin Gaye - This Is The Life
TTITLE15=Marvin Gaye - My Way
TTITLE16=The Temptations - My Girl
TTITLE17=The Temptations - (Talkin' 'Bout) Nobody But My Baby
TTITLE18=Choker Campbell's Big Band - Come See About Me
TTITLE19=Choker Campbell's Big Band - Pride And Joy
TTITLE20=Howard Crockett - Put Me In Your Pocket
TTITLE21=Howard Crockett - The Miles
TTITLE22=The Velvettes - He Was Really Sayin' Somethin'
TTITLE23=The Velvettes - Throw A Farewell Kiss
EXTD=YEAR: 2006
EXTT0=
EXTT1=
EXTT2=
EXTT3=
EXTT4=
EXTT5=
EXTT6=
EXTT7=
EXTT8=
EXTT9=
EXTT10=
EXTT11=
EXTT12=
EXTT13=
EXTT14=
EXTT15=
EXTT16=
EXTT17=
EXTT18=
EXTT19=
EXTT20=
EXTT21=
EXTT22=
EXTT23=
PLAYORDER=
